<svg width="70" height="70" viewBox="0 0 70 70" fill="none" xmlns="http://www.w3.org/2000/svg">
<circle cx="35" cy="35" r="35" fill="#FDFDFD"/>
<path d="M14.4339 42.4889C12.7358 42.4889 5.47168 32.9606 5.47168 32.9606L7.54715 31.5455C7.54715 31.5455 15.3773 35.2607 18.3019 35.2247C21.2264 35.1887 53.3962 18.6209 53.3962 18.6209C53.3962 18.6209 58.145 17.5706 60.1887 19.2813C61.1214 20.062 61.8708 20.6171 61.9811 21.8285C62.1083 23.2256 60.1887 24.9417 60.1887 24.9417L46.7924 31.5455L38.1132 55.7907C38.1132 55.7907 32.7358 60.3773 32.7358 54.717C32.7358 49.0566 36.5094 36.1321 36.5094 36.1321L24.717 41.4511C24.717 41.4511 21.9672 42.3372 19.4339 42.4889C17.9261 42.5791 16.1321 42.4889 14.4339 42.4889Z" fill="#D66853"/>
<path d="M19.2862 22.4528C18.5314 24.2453 28.4371 28.4906 28.4371 28.4906L36.9277 24.2453L24.9465 20H23.5314C23.5314 20 20.0409 20.6604 19.2862 22.4528Z" fill="#D66853"/>
</svg>
